<svg xmlns="http://www.w3.org/2000/svg" viewBox="0 0 1000 550"><defs><style>.cls-1{fill:none;}</style></defs><title>MTNI-Black FA</title><g id="Layer_2" data-name="Layer 2"><g id="Layer_1-2" data-name="Layer 1"><path d="M830.55,103.67C741.93,61.35,624.54,38,500,38S258,61.35,169.43,103.67C76.29,148.16,25,209,25,275S76.29,401.84,169.43,446.33C258,488.65,375.43,512,500,512s241.94-23.31,330.56-65.63C923.7,401.84,975,341,975,275S923.7,148.16,830.55,103.67ZM813.91,411.5c-83.53,39.89-195,61.86-313.92,61.86s-230.41-22-313.92-61.86C108.24,374.32,63.6,324.57,63.6,275s44.64-99.32,122.47-136.5c83.52-39.89,195-61.86,313.92-61.86s230.39,22,313.92,61.86C891.75,175.68,936.4,225.43,936.4,275S891.75,374.32,813.91,411.5Z"/><path d="M563.88,235.91q0-2.5-.3-7.14t-.86-10.24q-.59-5.59-1.26-11.68T560,195.37l-29,4.83q2.12,17.37,3,26.64c.58,6.17.87,10.49.87,12.93a4.61,4.61,0,0,1-.68,2.32,6,6,0,0,1-2.7,2.12,23.8,23.8,0,0,1-5.6,1.64,52.2,52.2,0,0,1-9.36.68h-4.83q-9.47,0-13.41-3.38c-2.65-2.25-4-6.4-4-12.45V209.85H468.32q0,12.35-.58,19.59a49.32,49.32,0,0,1-1.84,11c-.84,2.5-2,4.15-3.47,4.92a12.32,12.32,0,0,1-5.7,1.16,24.27,24.27,0,0,1-7.14-1.07,15.28,15.28,0,0,1-6.76-4.72c.13-1.68.23-3.67.29-6s.1-4.7.1-7.14v-13.9H417.16a137.81,137.81,0,0,1-.77,16.12,34.93,34.93,0,0,1-2.51,10,10.77,10.77,0,0,1-4.44,5.21,14.3,14.3,0,0,1-6.76,1.45,26.18,26.18,0,0,1-7.53-1.16q-3.87-1.16-6.37-5.6c.13-1.67.22-3.6.29-5.79s.1-4.47.1-6.86V213.71H363.1a129.57,129.57,0,0,1-.86,16.6q-.87,6.38-3.38,9.94a12.74,12.74,0,0,1-6.76,4.92,37.57,37.57,0,0,1-11.2,1.36H337a32.68,32.68,0,0,1-7.91-.87,14.69,14.69,0,0,1-6.08-3.09,13.68,13.68,0,0,1-4-6.18,31.86,31.86,0,0,1-1.35-10.13v-84l-29.92,2.9,2.89,139a9.28,9.28,0,0,1-2.7,6,24.79,24.79,0,0,1-7.82,5.59,56.06,56.06,0,0,1-12.64,4.15,82.52,82.52,0,0,1-17.38,1.64,54.21,54.21,0,0,1-14-1.54,26.94,26.94,0,0,1-9.27-4.25,15.51,15.51,0,0,1-5.12-6.37,20.67,20.67,0,0,1-1.54-8.11q0-2.5.19-6.07a84.62,84.62,0,0,1,1-8.5q.76-4.92,2.12-11.58T227,239.77L203.84,233q-7.92,21-10.23,34.46T191.29,288q0,24.71,14.29,37.94t42.66,13.22a88.11,88.11,0,0,0,27.12-4.06,71.17,71.17,0,0,0,22.11-11.39,53,53,0,0,0,14.86-17.85,51.06,51.06,0,0,0,5.41-23.65v-4.82a18.17,18.17,0,0,0,8,5.21A36.55,36.55,0,0,0,337,284.17h3.86q12.36,0,20.08-3.57a31,31,0,0,0,12.74-10.91,36,36,0,0,0,10.72,10.52q6.27,4,17.27,4A43.23,43.23,0,0,0,416,281.76q6.94-2.42,12.74-11.1a26.75,26.75,0,0,0,5.79,6.18,35.48,35.48,0,0,0,7,4.15,36.19,36.19,0,0,0,7.34,2.41,33.37,33.37,0,0,0,6.95.77,26.13,26.13,0,0,0,15.06-4.34,35,35,0,0,0,10-10.14,24.13,24.13,0,0,0,6.18,7.53,28.68,28.68,0,0,0,7.82,4.44,35.49,35.49,0,0,0,8.49,2,76.62,76.62,0,0,0,8.4.48h3.86a66.17,66.17,0,0,0,18.53-2.51,40.68,40.68,0,0,0,15.35-8.2,39,39,0,0,0,10.52-15Q563.88,249.23,563.88,235.91Z"/><polygon points="543.6 181.85 560.98 164.48 560.98 161.58 543.6 144.21 540.71 144.21 523.33 161.58 523.33 164.48 540.71 181.85 543.6 181.85"/><polygon points="608.27 283.21 608.27 142.28 578.35 145.18 581.25 285.14 608.27 283.21"/><polygon points="727 298.46 710.59 314.87 694.18 298.46 691.28 298.46 674.87 314.87 674.87 317.76 691.28 334.17 694.18 334.17 710.59 317.76 727 334.17 729.89 334.17 746.3 317.76 746.3 314.87 729.89 298.46 727 298.46"/><path d="M684.52,284.17h3.87a66.22,66.22,0,0,0,18.53-2.51,40.75,40.75,0,0,0,15.35-8.2,39.14,39.14,0,0,0,10.52-15q3.86-9.27,3.86-22.59,0-2.5-.29-7.14t-.87-10.24q-.59-5.59-1.25-11.68t-1.45-11.48l-29,4.83q2.13,17.37,3,26.64c.58,6.17.87,10.49.87,12.93a4.7,4.7,0,0,1-.67,2.32,6.08,6.08,0,0,1-2.71,2.12,23.85,23.85,0,0,1-5.59,1.64,52.4,52.4,0,0,1-9.37.68h-4.82a43,43,0,0,1-10.62-1.07,12.27,12.27,0,0,1-6.85-4.82,35.49,35.49,0,0,1-4.93-10.81q-2.11-7.05-4.63-19l-29,7.72q4.44,23.37,6.57,38.71t2.12,21.14a15.23,15.23,0,0,1-2.41,6.08,23.71,23.71,0,0,1-7,6.47,69.74,69.74,0,0,1-13.13,6.46,151.75,151.75,0,0,1-21,6.08l6.76,31.86q29.34-.78,46.24-15.35t19-42.76a18.88,18.88,0,0,0,8,5.41,33.31,33.31,0,0,0,10.71,1.54Z"/><polygon points="754.02 285.14 781.05 283.21 781.05 142.28 751.13 145.18 754.02 285.14"/><polygon points="411.31 395.89 387.27 363.24 366.27 363.24 366.27 446.5 387.14 446.5 387.14 399.81 403.84 422.33 415.74 422.33 430.92 399.81 430.92 446.5 453.69 446.5 453.69 363.24 432.82 363.24 411.31 395.89"/><polygon points="465.33 382.1 492.66 382.1 492.66 446.5 515.82 446.5 515.82 382.1 543.02 382.1 543.02 363.24 465.33 363.24 465.33 382.1"/><polygon points="612.86 409.17 575.41 363.24 554.66 363.24 554.66 446.5 575.54 446.5 575.54 398.92 614.63 446.5 633.74 446.5 633.74 363.24 612.86 363.24 612.86 409.17"/><rect class="cls-1" width="1000" height="550"/></g></g></svg>